<?xml version="1.0" encoding="UTF-8"?>
<svg viewBox="0 0 744.09448 1052.3622" xmlns="http://www.w3.org/2000/svg">
 <path d="m548.68 496.18c-2.746 21.908-80.154 39.491-175.28 39.491-94.181-3e-5 -170.86-17.255-175.05-38.858-100.65 23.767-139.76 51.427-139.76 101.05 0 75.103 125.91 151.72 316.21 151.72s342.55-81.102 342.55-156.2c0-50.047-66.589-73.573-168.67-97.204z" fill="#414141" fill-opacity=".15135" fill-rule="evenodd"/>
 <path d="m537.41 503.46c-4.2604 25.847-77.083 46.456-166.41 46.456-87.953-3e-5 -159.83-19.982-166.1-45.268-79.289 21.933-131.37 43.184-131.37 85.065 0 67.256 134.33 137.56 299.88 137.56s299.88-72.543 299.88-139.8c0-42.658-54.099-62.243-135.88-84.012z" fill="#414141" fill-opacity=".19459" fill-rule="evenodd"/>
 <path d="m213 516.6c-70.435 18.902-119.05 27.843-119.05 63.386 0 57.733 123.93 126.95 273.85 126.95s276.09-69.214 276.09-126.95c0-35.076-49.805-43.618-118.68-62.595-34.238 11.015-90.639 18.282-154.72 18.282-65.701 0-123.56-7.5839-157.49-19.073z" fill="#414141" fill-opacity=".25405" fill-rule="evenodd"/>
 <path transform="matrix(2.4846 0 0 2.5325 -250.97 -690.96)" d="m357.14 429.51a112.86 40 0 1 1 -225.71 0 112.86 40 0 1 1 225.71 0z" fill="#c5bc79" fill-rule="evenodd" opacity=".29843" stroke="#c5bc79" stroke-linejoin="round" stroke-width=".74548"/>
 <path transform="matrix(2.6126 0 0 2.5325 -380.08 -758.26)" d="m385.71 498.08a98.571 42.857 0 1 1 -197.14 0 98.571 42.857 0 1 1 197.14 0z" fill="#e7a04a" fill-rule="evenodd" opacity=".29843"/>
 <path d="m73.382 392.79 34.664 162.16c33.755 58.252 69.304 123.59 241.38 122.32 128.93 0.744 214.92-40.098 254.62-96.769 27.11-43.551 40.776-193.47 40.776-193.47s-56.468 118.62-295.82 118.62-275.62-112.86-275.62-112.86z" fill-rule="evenodd"/>
 <path d="m224.13 516.6c-66.418 17.345-110.02 18.829-110.02 51.443 0 52.976 89.98 123.21 260.47 118.73 141.37 0 251.39-63.512 251.39-116.49 0-32.186-42.484-35.544-107.43-52.957-32.285 10.108-85.47 16.775-145.9 16.775-61.954 0-116.51-6.959-148.51-17.502z" fill="#414141" fill-opacity=".25405" fill-rule="evenodd"/>
 <path d="m79.611 406.48 34.004 149.13c33.113 55.711 67.986 118.2 236.79 116.99 126.48 0.71155 210.83-38.349 249.77-92.549 26.594-41.651 41.528-180.56 41.528-180.56s-56.921 111.95-291.72 111.95-270.37-104.96-270.37-104.96z" fill="#e9b570" fill-rule="evenodd"/>
 <path d="m308.79 293.94c-212.45 5.3209-235.2 99.013-235.2 99.013s-5.9695-7.763 11.918 23.234 101.4 95.484 258.41 89.228c200.73 11.679 300.07-93.124 300.07-118.31s-35.734-85.186-290.13-92.935c-15.9-0.48432-30.903-0.58554-45.067-0.23079zm1.3418 5.77c13.771-0.3352 28.344-0.30375 43.804 0.15388 247.35 7.3219 282.16 64.061 282.16 87.858-9.9374 37.746-118.23 115.17-290.11 115.99-175.85-9.1525-235.51-65.212-248.92-80.549-13.417-13.345-15.577-29.974-15.577-29.974s22.079-88.446 228.65-93.474z" fill="#7f7f7f" fill-rule="evenodd"/>
 <path transform="matrix(2.5325 0 0 2.5325 -257.22 -690.96)" d="m215.62 451.54a5.115 4.3281 0 1 1 -10.23 0 5.115 4.3281 0 1 1 10.23 0z" fill="#fdfad7" fill-rule="evenodd"/>
 <path transform="matrix(2.5325 0 0 2.5325 -257.22 -690.96)" d="m251.82 454.3a5.115 3.9346 0 1 1 -10.23 0 5.115 3.9346 0 1 1 10.23 0z" fill="#fdfad7" fill-rule="evenodd"/>
 <path transform="matrix(2.5325 0 0 2.5325 -257.22 -690.96)" d="m232.14 461.78a3.5412 1.9673 0 1 1 -7.0823 0 3.5412 1.9673 0 1 1 7.0823 0z" fill="#fdfad7" fill-rule="evenodd"/>
 <path transform="matrix(2.5325 0 0 2.5325 -257.22 -690.96)" d="m280.15 449.58a3.5412 3.1477 0 1 1 -7.0823 0 3.5412 3.1477 0 1 1 7.0823 0z" fill="#fdfad7" fill-rule="evenodd"/>
 <path transform="matrix(2.5325 0 0 3.036 -257.22 -972.5)" d="m272.28 464.14a2.7542 1.9673 0 1 1 -5.5085 0 2.7542 1.9673 0 1 1 5.5085 0z" fill="#fdfad7" fill-rule="evenodd"/>
 <path transform="matrix(2.5325 0 0 2.5325 -257.22 -690.96)" d="m190.44 455.87a5.115 3.1477 0 1 1 -10.23 0 5.115 3.1477 0 1 1 10.23 0z" fill="#fdfad7" fill-rule="evenodd"/>
 <path transform="matrix(2.5325 0 0 2.5325 -257.22 -690.96)" d="m305.33 453.12a4.7216 3.5412 0 1 1 -9.4431 0 4.7216 3.5412 0 1 1 9.4431 0z" fill="#fdfad7" fill-rule="evenodd"/>
 <path transform="matrix(2.5325 0 0 2.5325 -257.22 -690.96)" d="m251.03 434.63a3.9346 3.1477 0 1 1 -7.8692 0 3.9346 3.1477 0 1 1 7.8692 0z" fill="#fdfad7" fill-rule="evenodd"/>
 <path transform="matrix(2.5325 0 0 2.5325 -257.22 -690.96)" d="m232.14 442.1a3.5412 2.7542 0 1 1 -7.0823 0 3.5412 2.7542 0 1 1 7.0823 0z" fill="#fdfad7" fill-rule="evenodd"/>
 <path transform="matrix(2.5325 0 0 2.5325 -257.22 -690.96)" d="m310.84 442.89a4.3281 3.5412 0 1 1 -8.6562 0 4.3281 3.5412 0 1 1 8.6562 0z" fill="#fdfad7" fill-rule="evenodd"/>
 <path d="m252.01 457.88c-14.333-8.1179-61.296-45.119-95.406-58.652s-95.896-33.148-106.13-44.989-43.144-35.513-12.926-36.554c35.815 3.3834 73.007 2.6973 115.64 34.839s130.72 116.86 98.817 105.36z" fill="#414141" fill-rule="evenodd"/>
 <path d="m253.09 457.96c-12.457-7.7854-62.283-49.826-93.424-62.283s-94.981-34.256-104.32-45.155-38.927-31.141-6.2283-28.027 68.511 6.2283 107.44 35.813 124.57 110.55 96.538 99.653z" fill="#c0c0c0" fill-rule="evenodd"/>
 <path d="m245.49 465.94c13.787 2.6229 24.985 5.3956 37.383 1.3864 7.0152-6.2283 1.2474-7.5064-9.2755-7.5064-3.2169-2.2191 15.522-1.5363 16.094 3.0933-4.0422 5.9951-4.3799 5.7328-16.722 7.9311-21.955-1.5571-27.48-4.9044-27.48-4.9044z" fill="#d6b680" fill-rule="evenodd"/>
 <path d="m238.15 470c21.932 6.2063 39.747 12.767 59.471 3.2805 11.16-14.738 1.9844-17.762-14.756-17.762-5.1175-5.2508 24.693-3.6352 25.603 7.3195-6.4306 14.186-6.9678 13.565-26.602 18.767-34.928-3.6845-43.716-11.605-43.716-11.605z" fill="#d6b680" fill-rule="evenodd"/>
 <path d="m319.92 382.67c0-22.496 16.069-28.924 0-41.779s-16.069-35.351-16.069-61.062 22.496-28.924 19.283-51.42 5.2073-11.119 8.4211 11.377-26.191 20.761-22.978 52.898 31.622 37.603 28.408 56.885-17.066 33.1-17.066 33.1z" fill-opacity=".43243" fill-rule="evenodd"/>
 <path d="m369.43 403.36c0-30.67 16.069-39.432 0-56.958s-16.069-48.195-16.069-83.246 22.496-39.432 19.283-70.102 5.2073-15.159 8.4211 15.511-26.191 28.303-22.978 72.117 31.622 51.265 28.408 77.553-17.066 45.126-17.066 45.126z" fill-opacity=".43243" fill-rule="evenodd"/>
 <path d="m425.6 401.14c0-22.496 16.069-28.924 0-41.779s-16.069-35.351-16.069-61.062 22.496-28.924 19.283-51.42 5.2073-11.119 8.4211 11.377-26.191 20.761-22.978 52.898 31.622 37.603 28.408 56.885-17.066 33.1-17.066 33.1z" fill-opacity=".43243" fill-rule="evenodd"/>
</svg>
